<svg xmlns="http://www.w3.org/2000/svg" xmlns:xlink="http://www.w3.org/1999/xlink" width="84" height="84" viewBox="0 0 84 84">
  <defs>
    <clipPath id="clip-path">
      <rect id="Rectángulo_454824" data-name="Rectángulo 454824" width="61" height="61" transform="translate(821.711 4782)" fill="#fff" stroke="#707070" stroke-width="1"/>
    </clipPath>
  </defs>
  <g id="Grupo_1177320" data-name="Grupo 1177320" transform="translate(-809.711 -4770)">
    <g id="Grupo_1177313" data-name="Grupo 1177313">
      <circle id="Elipse_13651" data-name="Elipse 13651" cx="42" cy="42" r="42" transform="translate(809.711 4770)" fill="#5ac1bd"/>
    </g>
    <g id="Enmascarar_grupo_1119180" data-name="Enmascarar grupo 1119180" clip-path="url(#clip-path)">
      <g id="discriminacion" transform="translate(822.076 4782.365)">
        <g id="Grupo_1177231" data-name="Grupo 1177231">
          <path id="Trazado_994757" data-name="Trazado 994757" d="M59.055,14.759H54.2V4.088h4.856c.183,0,.332.211.332.471v9.73C59.387,14.548,59.238,14.759,59.055,14.759Z" fill="#dcf2f7"/>
          <g id="Grupo_1177226" data-name="Grupo 1177226">
            <path id="Trazado_994758" data-name="Trazado 994758" d="M52.751,5.134c0-1.241-1.167-2.246-4.044-2.246H39.776A1.489,1.489,0,0,0,38.29,4.27c0,.036.127.085.127.121,0,.822.589,1.241,1.358,1.476h-.99a1.671,1.671,0,0,0-1.671,1.671q0,.037,0,.075a3.025,3.025,0,0,0,1.67,1.6h-.436a1.671,1.671,0,0,0-1.671,1.671h0q0,.038,0,.075c.516.895.906,1.482,1.8,1.482l.3.114a1.671,1.671,0,0,0-1.671,1.671h0c0,.025,0,.05,0,.074.053.876,1.044,1.352,1.942,1.352l5.061.02a1.643,1.643,0,0,1,1.41,1.817,1.529,1.529,0,0,1-.025.209l-.473,2.529,0,.017a2.445,2.445,0,0,0,.434,1.85,2.667,2.667,0,0,0,1.544.6h0a1.073,1.073,0,0,0,1.164-.713l1.4-4.248a7.24,7.24,0,0,1,3.2-4.067l1.1-3.825Z" fill="#fed2a4"/>
            <path id="Trazado_994759" data-name="Trazado 994759" d="M52.767,14.314a7.241,7.241,0,0,0-3.195,4.067l-1.358,3.938a1.073,1.073,0,0,1-1.015.724,1.175,1.175,0,0,1-.15-.01,2.377,2.377,0,0,1-1.586-.942c.052,0,.106.006.159.006a1.135,1.135,0,0,0,1-.713l1.358-3.938c.022-.067.046-.134.07-.2a6.91,6.91,0,0,1,4.714-4.257l.323.689Z" fill="#ffbd86"/>
            <path id="Trazado_994760" data-name="Trazado 994760" d="M56.6,14.727A1.168,1.168,0,0,1,55.434,15.9h-1.5a1.168,1.168,0,0,1-1.168-1.168V4.056a1.168,1.168,0,0,1,1.168-1.168h1.5A1.168,1.168,0,0,1,56.6,4.056V14.727Z" fill="#f2fbff"/>
            <path id="Trazado_994761" data-name="Trazado 994761" d="M37.168,12.062a1.665,1.665,0,0,1-.488-1.106h4.289a.8.8,0,0,1,.8.8h0a.8.8,0,0,1-.8.8h-2.62A1.665,1.665,0,0,1,37.168,12.062Z" fill="#ffbd86"/>
            <path id="Trazado_994762" data-name="Trazado 994762" d="M45.505,17.7a1.52,1.52,0,0,0-1.495-1.8H38.786a1.671,1.671,0,0,1-1.67-1.6h5.746a2.727,2.727,0,0,1,2.643,3.4Z" fill="#ffbd86"/>
            <path id="Trazado_994763" data-name="Trazado 994763" d="M38.287,4.393c0-.042,0-.083,0-.124h2.678a.8.8,0,0,1,.8.8h0a.8.8,0,0,1-.8.8H39.775A1.487,1.487,0,0,1,38.287,4.393Z" fill="#ffbd86"/>
            <path id="Trazado_994764" data-name="Trazado 994764" d="M37.116,7.612h3.853a.8.8,0,0,1,.8.8h0a.8.8,0,0,1-.8.8H38.786A1.671,1.671,0,0,1,37.116,7.612Z" fill="#ffbd86"/>
          </g>
          <g id="Grupo_1177227" data-name="Grupo 1177227">
            <path id="Trazado_994765" data-name="Trazado 994765" d="M59.387,32.478a.473.473,0,0,0-.325-.448,7.529,7.529,0,0,0-2.362-.318H47.768a1.489,1.489,0,0,0-1.485,1.382c0,.036.127.085.127.121,0,.822.589,1.241,1.358,1.476h-.943a1.7,1.7,0,0,0-1.719,1.637q0,.055,0,.109a3.025,3.025,0,0,0,1.67,1.6h-.436A1.671,1.671,0,0,0,44.67,39.7h0q0,.038,0,.075c.516.895.906,1.482,1.8,1.482l.3.114a1.671,1.671,0,0,0-1.671,1.671h0c0,.025,0,.05,0,.074.053.876,1.044,1.352,1.942,1.352l5.061.02a1.643,1.643,0,0,1,1.41,1.817,1.528,1.528,0,0,1-.025.209l-.473,2.529,0,.017a2.445,2.445,0,0,0,.434,1.85,2.667,2.667,0,0,0,1.544.6h0a1.073,1.073,0,0,0,1.164-.713l1.4-4.248c.362-1.077.994-3.367,1.823-4.215Z" fill="#d1a08f"/>
            <path id="Trazado_994766" data-name="Trazado 994766" d="M59.387,43.988a.476.476,0,0,1-.129.323,8.208,8.208,0,0,0-1.693,2.894l-1.358,3.938a1.073,1.073,0,0,1-1.015.724,1.175,1.175,0,0,1-.15-.01,2.377,2.377,0,0,1-1.586-.942c.052,0,.106.006.159.006a1.135,1.135,0,0,0,1-.713l1.358-3.938c.022-.067.046-.134.07-.2a6.845,6.845,0,0,1,3.343-3.731Z" fill="#c68d7a"/>
            <path id="Trazado_994767" data-name="Trazado 994767" d="M45.16,40.886a1.665,1.665,0,0,1-.488-1.106h4.289a.8.8,0,0,1,.8.8h0a.8.8,0,0,1-.8.8h-2.62A1.665,1.665,0,0,1,45.16,40.886Z" fill="#c68d7a"/>
            <path id="Trazado_994768" data-name="Trazado 994768" d="M53.5,46.519A1.52,1.52,0,0,0,52,44.719H46.778a1.671,1.671,0,0,1-1.67-1.6h5.746a2.726,2.726,0,0,1,2.643,3.4Z" fill="#c68d7a"/>
            <path id="Trazado_994769" data-name="Trazado 994769" d="M46.279,33.217c0-.042,0-.083,0-.124h2.678a.8.8,0,0,1,.8.8h0a.8.8,0,0,1-.8.8H47.768A1.487,1.487,0,0,1,46.279,33.217Z" fill="#c68d7a"/>
            <path id="Trazado_994770" data-name="Trazado 994770" d="M45.108,36.436h3.853a.8.8,0,0,1,.8.8h0a.8.8,0,0,1-.8.8H46.778A1.671,1.671,0,0,1,45.108,36.436Z" fill="#c68d7a"/>
          </g>
          <g id="Grupo_1177228" data-name="Grupo 1177228">
            <path id="Trazado_994771" data-name="Trazado 994771" d="M.875,32.464a.473.473,0,0,1,.329-.45,7.632,7.632,0,0,1,2.313-.3h8.932a1.489,1.489,0,0,1,1.485,1.382c0,.036-.127.085-.127.121,0,.822-.589,1.241-1.358,1.476H13.4a1.671,1.671,0,0,1,1.708,1.746,3.025,3.025,0,0,1-1.67,1.6h.393a1.7,1.7,0,0,1,1.714,1.627c0,.04,0,.08,0,.119-.516.895-.906,1.483-1.8,1.483l-.3.114a1.671,1.671,0,0,1,1.671,1.671h0c0,.025,0,.05,0,.074-.053.876-1.044,1.352-1.942,1.352l-5.061.02A1.643,1.643,0,0,0,6.7,46.31a1.547,1.547,0,0,0,.024.209l.473,2.529,0,.017a2.445,2.445,0,0,1-.434,1.85,2.377,2.377,0,0,1-1.586.942,1.154,1.154,0,0,1-.15.01,1.073,1.073,0,0,1-1.015-.724L2.653,47.205a8.233,8.233,0,0,0-1.645-2.841.476.476,0,0,1-.125-.319Z" fill="#fed2a4"/>
            <path id="Trazado_994772" data-name="Trazado 994772" d="M15.057,40.886a1.665,1.665,0,0,0,.488-1.106H11.256a.8.8,0,0,0-.8.8h0a.8.8,0,0,0,.8.8h2.62A1.665,1.665,0,0,0,15.057,40.886Z" fill="#ffbd86"/>
            <path id="Trazado_994773" data-name="Trazado 994773" d="M6.72,46.519a1.52,1.52,0,0,1,1.495-1.8h5.224a1.671,1.671,0,0,0,1.67-1.6H9.363a2.727,2.727,0,0,0-2.643,3.4Z" fill="#ffbd86"/>
            <path id="Trazado_994774" data-name="Trazado 994774" d="M13.938,33.217c0-.042,0-.083,0-.124H11.256a.8.8,0,0,0-.8.8h0a.8.8,0,0,0,.8.8H12.45A1.487,1.487,0,0,0,13.938,33.217Z" fill="#ffbd86"/>
            <path id="Trazado_994775" data-name="Trazado 994775" d="M15.109,36.436H11.256a.8.8,0,0,0-.8.8h0a.8.8,0,0,0,.8.8h2.183A1.671,1.671,0,0,0,15.109,36.436Z" fill="#ffbd86"/>
          </g>
          <path id="Trazado_994776" data-name="Trazado 994776" d="M1.215,14.759H6.07V4.088H1.215c-.183,0-.332.211-.332.471v9.73C.883,14.548,1.031,14.759,1.215,14.759Z" fill="#6cabca"/>
          <g id="Grupo_1177229" data-name="Grupo 1177229">
            <path id="Trazado_994777" data-name="Trazado 994777" d="M21.484,9.319h.436a1.671,1.671,0,0,1,1.671,1.671q0,.038,0,.075c-.516.895-.906,1.483-1.8,1.483l-.3.114a1.671,1.671,0,0,1,1.671,1.671h0c0,.025,0,.05,0,.074-.053.876-1.044,1.352-1.942,1.352l-5.061.02A1.643,1.643,0,0,0,14.74,17.6a1.547,1.547,0,0,0,.024.209l.473,2.529,0,.017a2.445,2.445,0,0,1-.434,1.85,2.377,2.377,0,0,1-1.586.942,1.154,1.154,0,0,1-.15.01,1.073,1.073,0,0,1-1.015-.724L10.7,18.491A7.24,7.24,0,0,0,7.5,14.424l-1.1-4.479,1.113-4.7C7.518,4,8.685,3,11.562,3h8.932a1.489,1.489,0,0,1,1.485,1.382c0,.036-.127.085-.127.121,0,.822-.589,1.241-1.358,1.476h.99a1.671,1.671,0,0,1,1.671,1.671q0,.037,0,.075A3.025,3.025,0,0,1,21.484,9.319Z" fill="#d1a08f"/>
            <path id="Trazado_994778" data-name="Trazado 994778" d="M6.335,16h-1.5a1.168,1.168,0,0,1-1.168-1.168V4.165A1.168,1.168,0,0,1,4.836,3h1.5A1.168,1.168,0,0,1,7.5,4.165V14.836A1.168,1.168,0,0,1,6.335,16Z" fill="#8abbd5"/>
            <path id="Trazado_994779" data-name="Trazado 994779" d="M23.1,12.172a1.665,1.665,0,0,0,.488-1.106H19.3a.8.8,0,0,0-.8.8h0a.8.8,0,0,0,.8.8h2.62A1.666,1.666,0,0,0,23.1,12.172Z" fill="#c68d7a"/>
            <path id="Trazado_994780" data-name="Trazado 994780" d="M14.765,17.8A1.52,1.52,0,0,1,16.26,16h5.224a1.671,1.671,0,0,0,1.67-1.6H17.407a2.727,2.727,0,0,0-2.643,3.4Z" fill="#c68d7a"/>
            <path id="Trazado_994781" data-name="Trazado 994781" d="M21.983,4.5c0-.042,0-.083,0-.124H19.3a.8.8,0,0,0-.8.8h0a.8.8,0,0,0,.8.8h1.194A1.487,1.487,0,0,0,21.983,4.5Z" fill="#c68d7a"/>
            <path id="Trazado_994782" data-name="Trazado 994782" d="M23.154,7.722H19.3a.8.8,0,0,0-.8.8h0a.8.8,0,0,0,.8.8h2.183A1.671,1.671,0,0,0,23.154,7.722Z" fill="#c68d7a"/>
          </g>
          <g id="Grupo_1177230" data-name="Grupo 1177230">
            <path id="Trazado_994783" data-name="Trazado 994783" d="M38.087,51.755l.306,5.571h2.6l2.312-.361V52.061Z" fill="#fed2a4"/>
            <path id="Trazado_994784" data-name="Trazado 994784" d="M43.541,52.061l-2.548-.54v5.806H43.07a.471.471,0,0,0,.471-.471Z" fill="#ffbd86"/>
            <path id="Trazado_994785" data-name="Trazado 994785" d="M16.729,52.061v4.8a.471.471,0,0,0,.471.471h4.677l.376-5.642Z" fill="#fed2a4"/>
            <path id="Trazado_994786" data-name="Trazado 994786" d="M22.113,49.133a7.481,7.481,0,0,0-1.981-5.071h0l-.5-.266a5.574,5.574,0,0,0-2.9,4.891v3.375h5.492Z" fill="#6cabca"/>
            <path id="Trazado_994787" data-name="Trazado 994787" d="M26.443,41.94a5.413,5.413,0,0,0,7.385,0l.324-1.051a1.182,1.182,0,0,1-.228-.7V38.4l-1.177-7.827H27.524L26.347,38.4v1.793a1.183,1.183,0,0,1-.228.7Z" fill="#ffbd86"/>
            <path id="Trazado_994788" data-name="Trazado 994788" d="M38.157,49.133v2.928h2.836l2.392-.208.029-3.179A5.373,5.373,0,0,0,40.535,43.9l-.4.162A7.481,7.481,0,0,0,38.157,49.133Z" fill="#6cabca"/>
            <path id="Trazado_994789" data-name="Trazado 994789" d="M43.541,52.061V48.686a5.574,5.574,0,0,0-2.9-4.891l-.5.266a7.827,7.827,0,0,0-.593,1.083A2.855,2.855,0,0,1,40.993,47.5v4.556h2.548Z" fill="#3f9bba"/>
            <path id="Trazado_994790" data-name="Trazado 994790" d="M38.393,49.133a7.491,7.491,0,0,1,1.152-3.987c.242-.384.769-1.35.769-1.35a5.6,5.6,0,0,0-.543-.26l-5.133-2.122c-.206-.085-.361-.353-.487-.525l-.324.324a5.413,5.413,0,0,1-7.385,0h0l-.324-.324a1.182,1.182,0,0,1-.5.4l-5.442,2.25a5.6,5.6,0,0,0-.543.26l.266.266h0a7.481,7.481,0,0,1,1.981,5.071v8.194H38.393V49.133Z" fill="#8abbd5"/>
            <path id="Trazado_994791" data-name="Trazado 994791" d="M39.544,45.145a7.442,7.442,0,0,1,.829-1.083l.266-.266a5.6,5.6,0,0,0-.543-.26l-5.442-2.25a1.181,1.181,0,0,1-.5-.4h0a2.26,2.26,0,0,0,1.131,1.951C36.734,43.643,37.926,44.265,39.544,45.145Z" fill="#6cabca"/>
            <path id="Trazado_994792" data-name="Trazado 994792" d="M26.347,38.4c.325.18.659.348,1,.5a6.955,6.955,0,0,0,5.567,0c.345-.151.679-.318,1-.5V30.571H26.347V38.4Z" fill="#fcad77"/>
            <path id="Trazado_994793" data-name="Trazado 994793" d="M41.766,32.38a8.47,8.47,0,0,1-2.589,6.4.471.471,0,0,1-.647,0l-1.58-1.464-2.7-2.54-8.2.235-4.284,4a.472.472,0,0,1-.649,0,9.209,9.209,0,0,1-2.823-6.636,7.3,7.3,0,0,1,.138-1.274,39.409,39.409,0,0,0,.607-8.574c0-.093-.006-.186-.006-.279,0-5.069,4.964-9.178,11.1-9.178,4.892,0,10.892,4.109,10.892,9.178,0,.093,0,.187,0,.28a39.4,39.4,0,0,0,.607,8.573A7.287,7.287,0,0,1,41.766,32.38Z" fill="#caefb1"/>
            <path id="Trazado_994794" data-name="Trazado 994794" d="M41.974,32.38a9.206,9.206,0,0,1-2.824,6.636.471.471,0,0,1-.647,0l-3.619-3.4s3.377-6.723,3.377-9.745l.04-3.092c0-7.291-8.168-9.7-8.168-9.7,6.139,0,11.1,4.109,11.1,9.178,0,.093,0,.187,0,.28a39.4,39.4,0,0,0,.607,8.573A7.3,7.3,0,0,1,41.974,32.38Z" fill="#9de0b1"/>
            <path id="Trazado_994795" data-name="Trazado 994795" d="M22.227,25.65A8.492,8.492,0,0,0,29.9,20.226a.236.236,0,0,1,.44,0,8.492,8.492,0,0,0,7.687,5.424.237.237,0,0,1,.233.219c.329,4.9-1.316,9.336-6.057,11.444l-.018.008c-5.343,2.015-10.33-4.256-10.19-9.248,0-.01,0-1.585,0-2.189A.236.236,0,0,1,22.227,25.65Z" fill="#fed2a4"/>
          </g>
        </g>
        <g id="Grupo_1177232" data-name="Grupo 1177232">
          <line id="Línea_3223" data-name="Línea 3223" x1="2.699" transform="translate(0.883 4.111)" fill="none" stroke="#000" stroke-linecap="round" stroke-linejoin="round" stroke-miterlimit="10" stroke-width="1.766"/>
          <line id="Línea_3224" data-name="Línea 3224" x1="2.699" transform="translate(0.883 14.782)" fill="none" stroke="#000" stroke-linecap="round" stroke-linejoin="round" stroke-miterlimit="10" stroke-width="1.766"/>
          <line id="Línea_3225" data-name="Línea 3225" x2="2.785" transform="translate(56.602 4.111)" fill="none" stroke="#000" stroke-linecap="round" stroke-linejoin="round" stroke-miterlimit="10" stroke-width="1.766"/>
          <line id="Línea_3226" data-name="Línea 3226" x2="2.785" transform="translate(56.602 14.782)" fill="none" stroke="#000" stroke-linecap="round" stroke-linejoin="round" stroke-miterlimit="10" stroke-width="1.766"/>
          <path id="Trazado_994796" data-name="Trazado 994796" d="M21.484,12.607a1.671,1.671,0,0,1,1.671,1.671h0a1.671,1.671,0,0,1-1.671,1.671H16.26a1.521,1.521,0,0,0-1.5,1.8l.473,2.529,0,.017a2.39,2.39,0,0,1-2.02,2.791h0a1.073,1.073,0,0,1-1.164-.713L10.7,18.437a7.333,7.333,0,0,0-3.067-4" fill="none" stroke="#000" stroke-linecap="round" stroke-linejoin="round" stroke-miterlimit="10" stroke-width="1.766"/>
          <path id="Trazado_994797" data-name="Trazado 994797" d="M18.009,9.264H21.92a1.671,1.671,0,0,1,1.671,1.671h0a1.671,1.671,0,0,1-1.671,1.671H18.009" fill="none" stroke="#000" stroke-linecap="round" stroke-linejoin="round" stroke-miterlimit="10" stroke-width="1.766"/>
          <path id="Trazado_994798" data-name="Trazado 994798" d="M18.009,5.921h3.475a1.671,1.671,0,0,1,1.671,1.671h0a1.671,1.671,0,0,1-1.671,1.671" fill="none" stroke="#000" stroke-linecap="round" stroke-linejoin="round" stroke-miterlimit="10" stroke-width="1.766"/>
          <path id="Trazado_994799" data-name="Trazado 994799" d="M16.928,2.943h3.566a1.489,1.489,0,1,1,0,2.978" fill="none" stroke="#000" stroke-linecap="round" stroke-linejoin="round" stroke-miterlimit="10" stroke-width="1.766"/>
          <path id="Trazado_994800" data-name="Trazado 994800" d="M7.518,5.189c0-1.241,1.167-2.246,4.043-2.246h1.247" fill="none" stroke="#000" stroke-linecap="round" stroke-linejoin="round" stroke-miterlimit="10" stroke-width="1.766"/>
          <path id="Trazado_994801" data-name="Trazado 994801" d="M3.668,14.782A1.168,1.168,0,0,0,4.836,15.95h1.5A1.168,1.168,0,0,0,7.5,14.782V4.111A1.168,1.168,0,0,0,6.335,2.943h-1.5A1.168,1.168,0,0,0,3.668,4.111V14.782Z" fill="none" stroke="#000" stroke-linecap="round" stroke-linejoin="round" stroke-miterlimit="10" stroke-width="1.766"/>
          <path id="Trazado_994802" data-name="Trazado 994802" d="M38.786,12.607a1.671,1.671,0,0,0-1.671,1.671h0a1.671,1.671,0,0,0,1.671,1.671H44.01a1.521,1.521,0,0,1,1.5,1.8l-.473,2.529,0,.017a2.39,2.39,0,0,0,2.02,2.791h0a1.073,1.073,0,0,0,1.164-.713l1.358-3.938a7.367,7.367,0,0,1,3.021-3.973" fill="none" stroke="#000" stroke-linecap="round" stroke-linejoin="round" stroke-miterlimit="10" stroke-width="1.766"/>
          <path id="Trazado_994803" data-name="Trazado 994803" d="M42.26,9.264H38.349a1.671,1.671,0,0,0-1.671,1.671h0a1.671,1.671,0,0,0,1.671,1.671H42.26" fill="none" stroke="#000" stroke-linecap="round" stroke-linejoin="round" stroke-miterlimit="10" stroke-width="1.766"/>
          <path id="Trazado_994804" data-name="Trazado 994804" d="M42.26,5.921H38.786a1.671,1.671,0,0,0-1.671,1.671h0a1.671,1.671,0,0,0,1.671,1.671" fill="none" stroke="#000" stroke-linecap="round" stroke-linejoin="round" stroke-miterlimit="10" stroke-width="1.766"/>
          <path id="Trazado_994805" data-name="Trazado 994805" d="M52.752,5.189c0-1.241-1.167-2.246-4.044-2.246H39.776a1.489,1.489,0,0,0-1.489,1.489h0a1.489,1.489,0,0,0,1.489,1.489" fill="none" stroke="#000" stroke-linecap="round" stroke-linejoin="round" stroke-miterlimit="10" stroke-width="1.766"/>
          <path id="Trazado_994806" data-name="Trazado 994806" d="M56.6,14.782a1.168,1.168,0,0,1-1.168,1.168h-1.5a1.168,1.168,0,0,1-1.168-1.168V4.111a1.168,1.168,0,0,1,1.168-1.168h1.5A1.168,1.168,0,0,1,56.6,4.111Z" fill="none" stroke="#000" stroke-linecap="round" stroke-linejoin="round" stroke-miterlimit="10" stroke-width="1.766"/>
          <path id="Trazado_994807" data-name="Trazado 994807" d="M50.253,41.376H46.778a1.671,1.671,0,0,0-1.671,1.671h0a1.671,1.671,0,0,0,1.671,1.671H52a1.521,1.521,0,0,1,1.5,1.8l-.473,2.529,0,.017a2.39,2.39,0,0,0,2.02,2.791h0a1.073,1.073,0,0,0,1.164-.713l1.358-3.938a8.148,8.148,0,0,1,1.822-3.03" fill="none" stroke="#000" stroke-linecap="round" stroke-linejoin="round" stroke-miterlimit="10" stroke-width="1.766"/>
          <path id="Trazado_994808" data-name="Trazado 994808" d="M50.253,38.033H46.342A1.671,1.671,0,0,0,44.67,39.7h0a1.671,1.671,0,0,0,1.671,1.671h.436" fill="none" stroke="#000" stroke-linecap="round" stroke-linejoin="round" stroke-miterlimit="10" stroke-width="1.766"/>
          <path id="Trazado_994809" data-name="Trazado 994809" d="M50.253,34.69H46.778a1.671,1.671,0,0,0-1.671,1.671h0a1.671,1.671,0,0,0,1.671,1.671" fill="none" stroke="#000" stroke-linecap="round" stroke-linejoin="round" stroke-miterlimit="10" stroke-width="1.766"/>
          <path id="Trazado_994810" data-name="Trazado 994810" d="M47.768,34.69a1.489,1.489,0,1,1,0-2.978h2.166" fill="none" stroke="#000" stroke-linecap="round" stroke-linejoin="round" stroke-miterlimit="10" stroke-width="1.766"/>
          <path id="Trazado_994811" data-name="Trazado 994811" d="M54.054,31.712H56.7a6.837,6.837,0,0,1,2.686.441" fill="none" stroke="#000" stroke-linecap="round" stroke-linejoin="round" stroke-miterlimit="10" stroke-width="1.766"/>
          <path id="Trazado_994812" data-name="Trazado 994812" d="M10.017,41.376h3.475a1.671,1.671,0,0,1,1.671,1.671h0a1.671,1.671,0,0,1-1.671,1.671H8.267a1.521,1.521,0,0,0-1.5,1.8l.473,2.529,0,.017a2.39,2.39,0,0,1-2.02,2.791h0a1.073,1.073,0,0,1-1.164-.713L2.706,47.206a8.148,8.148,0,0,0-1.822-3.03" fill="none" stroke="#000" stroke-linecap="round" stroke-linejoin="round" stroke-miterlimit="10" stroke-width="1.766"/>
          <path id="Trazado_994813" data-name="Trazado 994813" d="M10.017,38.033h3.911A1.671,1.671,0,0,1,15.6,39.7h0a1.671,1.671,0,0,1-1.671,1.671h-.436" fill="none" stroke="#000" stroke-linecap="round" stroke-linejoin="round" stroke-miterlimit="10" stroke-width="1.766"/>
          <path id="Trazado_994814" data-name="Trazado 994814" d="M10.017,34.69h3.475a1.671,1.671,0,0,1,1.671,1.671h0a1.671,1.671,0,0,1-1.671,1.671" fill="none" stroke="#000" stroke-linecap="round" stroke-linejoin="round" stroke-miterlimit="10" stroke-width="1.766"/>
          <path id="Trazado_994815" data-name="Trazado 994815" d="M.883,32.154a6.836,6.836,0,0,1,2.687-.442H12.5A1.489,1.489,0,0,1,13.991,33.2h0A1.489,1.489,0,0,1,12.5,34.69" fill="none" stroke="#000" stroke-linecap="round" stroke-linejoin="round" stroke-miterlimit="10" stroke-width="1.766"/>
          <path id="Trazado_994816" data-name="Trazado 994816" d="M25.3,35.729l-3.38,3.159a.709.709,0,0,1-.988-.021A9.215,9.215,0,0,1,18.28,32.4a7.31,7.31,0,0,1,.139-1.274,39.488,39.488,0,0,0,.606-8.574c0-.093,0-.186,0-.28a8.492,8.492,0,0,1,3.46-6.654l.015-.011a12.415,12.415,0,0,1,7.64-2.512,12.415,12.415,0,0,1,7.64,2.512l.015.011a9.079,9.079,0,0,1,3.03,4.119" fill="none" stroke="#000" stroke-linecap="round" stroke-linejoin="round" stroke-miterlimit="10" stroke-width="1.766"/>
          <path id="Trazado_994817" data-name="Trazado 994817" d="M35,35.749l3.441,3.217a.585.585,0,0,0,.81,0A9.21,9.21,0,0,0,41.99,32.4a7.31,7.31,0,0,0-.139-1.274,39.069,39.069,0,0,1-.632-7.284" fill="none" stroke="#000" stroke-linecap="round" stroke-linejoin="round" stroke-miterlimit="10" stroke-width="1.766"/>
          <path id="Trazado_994818" data-name="Trazado 994818" d="M26.351,36.564v3.687a1.183,1.183,0,0,1-.731,1.093l-5.436,2.248a5.567,5.567,0,0,0-3.44,5.145v8.59" fill="none" stroke="#000" stroke-linecap="round" stroke-linejoin="round" stroke-miterlimit="10" stroke-width="1.766"/>
          <path id="Trazado_994819" data-name="Trazado 994819" d="M43.526,57.327v-8.59a5.567,5.567,0,0,0-3.44-5.145l-5.436-2.248a1.183,1.183,0,0,1-.731-1.093V36.679" fill="none" stroke="#000" stroke-linecap="round" stroke-linejoin="round" stroke-miterlimit="10" stroke-width="1.766"/>
          <path id="Trazado_994820" data-name="Trazado 994820" d="M22.01,25.69V28.1a10.092,10.092,0,0,0,.074,1.227" fill="none" stroke="#000" stroke-linecap="round" stroke-linejoin="round" stroke-miterlimit="10" stroke-width="1.766"/>
          <path id="Trazado_994821" data-name="Trazado 994821" d="M38.26,25.679V28.1a10.089,10.089,0,0,1-6.051,9.244,5.182,5.182,0,0,1-4.148,0,10.085,10.085,0,0,1-4.4-3.721c-.085-.129-.167-.261-.245-.4" fill="none" stroke="#000" stroke-linecap="round" stroke-linejoin="round" stroke-miterlimit="10" stroke-width="1.766"/>
          <path id="Trazado_994822" data-name="Trazado 994822" d="M38.26,25.676h0a8.462,8.462,0,0,1-8-5.714l-.121-.353-.121.353a8.462,8.462,0,0,1-8,5.714h0" fill="none" stroke="#000" stroke-linecap="round" stroke-linejoin="round" stroke-miterlimit="10" stroke-width="1.766"/>
          <path id="Trazado_994823" data-name="Trazado 994823" d="M31.775,32.933a3.309,3.309,0,0,0-3.28,0" fill="none" stroke="#000" stroke-linecap="round" stroke-linejoin="round" stroke-miterlimit="10" stroke-width="1.766"/>
          <path id="Trazado_994824" data-name="Trazado 994824" d="M19.908,44.118h0a7.473,7.473,0,0,1,1.978,5.065v8.144" fill="none" stroke="#000" stroke-linecap="round" stroke-linejoin="round" stroke-miterlimit="10" stroke-width="1.766"/>
          <line id="Línea_3227" data-name="Línea 3227" x2="4.677" transform="translate(17.092 51.911)" fill="none" stroke="#000" stroke-linecap="round" stroke-linejoin="round" stroke-miterlimit="10" stroke-width="1.766"/>
          <path id="Trazado_994825" data-name="Trazado 994825" d="M40.362,44.118h0a7.473,7.473,0,0,0-1.978,5.065v8.144" fill="none" stroke="#000" stroke-linecap="round" stroke-linejoin="round" stroke-miterlimit="10" stroke-width="1.766"/>
          <line id="Línea_3228" data-name="Línea 3228" x1="4.677" transform="translate(38.501 51.911)" fill="none" stroke="#000" stroke-linecap="round" stroke-linejoin="round" stroke-miterlimit="10" stroke-width="1.766"/>
          <path id="Trazado_994826" data-name="Trazado 994826" d="M26.447,41.272h0a5.407,5.407,0,0,0,7.376,0h0" fill="none" stroke="#000" stroke-linecap="round" stroke-linejoin="round" stroke-miterlimit="10" stroke-width="1.766"/>
          <line id="Línea_3229" data-name="Línea 3229" y1="2.503" transform="translate(30.135 17.106)" fill="none" stroke="#000" stroke-linecap="round" stroke-linejoin="round" stroke-miterlimit="10" stroke-width="1.766"/>
        </g>
      </g>
    </g>
  </g>
</svg>
