<svg xmlns="http://www.w3.org/2000/svg" width="122.329" height="128.002" viewBox="0 0 122.329 128.002">
  <g id="reflexionar" transform="translate(-11.289)">
    <circle id="Elipse_13696" data-name="Elipse 13696" cx="61.165" cy="61.165" r="61.165" transform="translate(11.289 5.673)" fill="#f7e869"/>
    <g id="Grupo_1177291" data-name="Grupo 1177291" transform="translate(15.519 0)">
      <g id="Grupo_1177285" data-name="Grupo 1177285" transform="translate(44.089 56.802)">
        <path id="Trazado_995071" data-name="Trazado 995071" d="M261.79,273.428a28.078,28.078,0,0,0,7.71-19.17c0-9.381-4.787-17.749-12.27-23.218a1.666,1.666,0,0,1-.571.1,1.7,1.7,0,0,1-.661-.136l-10.519-4.433-.1.039a35.42,35.42,0,0,1-13.369,2.575,36.117,36.117,0,0,1-6.283-.55,26.872,26.872,0,0,1,.636,5.814c0,12.785-9.019,23.7-21.607,27.824,3.871,12.581,16.626,21.814,31.767,21.814a35.813,35.813,0,0,0,13.463-2.593l10.424,4.393a1.944,1.944,0,0,0,2.684-2.033Z" transform="translate(-204.761 -226.574)" fill="#fe5694"/>
        <g id="Grupo_1177283" data-name="Grupo 1177283" transform="translate(0 2.064)">
          <path id="Trazado_995072" data-name="Trazado 995072" d="M218.358,335.68c0-.147,0-.294.005-.441a33.13,33.13,0,0,1-13.6,8.46c3.872,12.582,16.627,21.814,31.767,21.814a36.379,36.379,0,0,0,7.4-.757C229.279,361.715,218.358,349.852,218.358,335.68Z" transform="translate(-204.76 -310.061)" fill="#fe0364"/>
          <path id="Trazado_995073" data-name="Trazado 995073" d="M289.042,240.944a32.421,32.421,0,0,1,7.147-5.619c-.5.02-.995.032-1.495.032a36.118,36.118,0,0,1-6.283-.55,26.874,26.874,0,0,1,.636,5.814C289.046,240.73,289.043,240.837,289.042,240.944Z" transform="translate(-267.439 -234.808)" fill="#fe0364"/>
        </g>
        <g id="Grupo_1177284" data-name="Grupo 1177284" transform="translate(10.2 22.67)">
          <circle id="Elipse_13697" data-name="Elipse 13697" cx="5.014" cy="5.014" r="5.014" transform="translate(33.851)" fill="#fff"/>
          <path id="Trazado_995074" data-name="Trazado 995074" d="M384.617,322.014a5.011,5.011,0,0,1,2.942-4.562,5.014,5.014,0,1,0,0,9.124A5.011,5.011,0,0,1,384.617,322.014Z" transform="translate(-346.623 -317)" fill="#dff6fd"/>
          <circle id="Elipse_13698" data-name="Elipse 13698" cx="5.014" cy="5.014" r="5.014" transform="translate(16.553)" fill="#fff"/>
          <path id="Trazado_995075" data-name="Trazado 995075" d="M315.617,322.014a5.011,5.011,0,0,1,2.942-4.562,5.014,5.014,0,1,0,0,9.124A5.011,5.011,0,0,1,315.617,322.014Z" transform="translate(-294.921 -317)" fill="#dff6fd"/>
          <path id="Trazado_995076" data-name="Trazado 995076" d="M252.074,319.352a30.829,30.829,0,0,1-6.626,7.045,5.011,5.011,0,1,0,6.626-7.045Z" transform="translate(-245.448 -318.762)" fill="#fff"/>
          <path id="Trazado_995077" data-name="Trazado 995077" d="M248.845,335.626c0-.155.01-.308.023-.46a31.668,31.668,0,0,1-3.421,3.081,5,5,0,0,0,6.34,1.941A5.012,5.012,0,0,1,248.845,335.626Z" transform="translate(-245.448 -330.612)" fill="#dff6fd"/>
        </g>
      </g>
      <g id="Grupo_1177287" data-name="Grupo 1177287" transform="translate(0 34.847)">
        <path id="Trazado_995078" data-name="Trazado 995078" d="M68.1,139.533A36.524,36.524,0,0,0,61.868,139C43.658,139,28.9,152.357,28.9,168.833A28.078,28.078,0,0,0,36.605,188L35.3,198.432a1.944,1.944,0,0,0,2.684,2.033l10.423-4.393a35.818,35.818,0,0,0,13.463,2.593c18.211,0,32.973-13.357,32.973-29.833a27.215,27.215,0,0,0-.618-5.767C81.034,160.841,70.6,151.442,68.1,139.533Z" transform="translate(-28.895 -139)" fill="#01c0fa"/>
        <path id="Trazado_995079" data-name="Trazado 995079" d="M41.457,168.833c0-14.517,11.461-26.61,26.643-29.281l0-.018A36.528,36.528,0,0,0,61.869,139C43.659,139,28.9,152.357,28.9,168.833A28.078,28.078,0,0,0,36.606,188L35.3,198.432a1.944,1.944,0,0,0,2.684,2.033l10.423-4.393a35.816,35.816,0,0,0,13.463,2.593,36.506,36.506,0,0,0,6.281-.543C52.943,195.47,41.457,183.366,41.457,168.833Z" transform="translate(-28.896 -139)" fill="#08a9f1"/>
        <g id="Grupo_1177286" data-name="Grupo 1177286" transform="translate(10.661 24.819)">
          <circle id="Elipse_13699" data-name="Elipse 13699" cx="5.014" cy="5.014" r="5.014" fill="#fff"/>
          <path id="Trazado_995080" data-name="Trazado 995080" d="M75.577,243.014a5.01,5.01,0,0,1,2.936-4.559,5.014,5.014,0,1,0,0,9.118A5.011,5.011,0,0,1,75.577,243.014Z" transform="translate(-71.421 -238)" fill="#dff6fd"/>
          <circle id="Elipse_13700" data-name="Elipse 13700" cx="5.014" cy="5.014" r="5.014" transform="translate(17.298)" fill="#fff"/>
          <path id="Trazado_995081" data-name="Trazado 995081" d="M144.578,243.014a5.01,5.01,0,0,1,2.936-4.559,5.014,5.014,0,1,0,0,9.118A5.01,5.01,0,0,1,144.578,243.014Z" transform="translate(-123.124 -238)" fill="#dff6fd"/>
          <circle id="Elipse_13701" data-name="Elipse 13701" cx="5.014" cy="5.014" r="5.014" transform="translate(34.596)" fill="#fff"/>
          <path id="Trazado_995082" data-name="Trazado 995082" d="M213.578,243.014a5.01,5.01,0,0,1,2.936-4.559,5.014,5.014,0,1,0,0,9.118A5.01,5.01,0,0,1,213.578,243.014Z" transform="translate(-174.826 -238)" fill="#dff6fd"/>
        </g>
      </g>
      <g id="Grupo_1177290" data-name="Grupo 1177290" transform="translate(38.37)">
        <path id="Trazado_995083" data-name="Trazado 995083" d="M240.183,49a28.078,28.078,0,0,0,7.71-19.17C247.894,13.357,233.131,0,214.92,0s-32.973,13.357-32.973,29.833S196.71,59.666,214.92,59.666a35.813,35.813,0,0,0,13.463-2.593l10.423,4.393a1.944,1.944,0,0,0,2.684-2.033Z" transform="translate(-181.947 0)" fill="#05e39c"/>
        <g id="Grupo_1177288" data-name="Grupo 1177288" transform="translate(0)">
          <path id="Trazado_995084" data-name="Trazado 995084" d="M194.733,29.833c0-14.5,11.43-26.577,26.58-29.271A36.5,36.5,0,0,0,214.921,0c-18.211,0-32.973,13.357-32.973,29.833s14.763,29.833,32.973,29.833a36.481,36.481,0,0,0,6.391-.563C206.162,56.409,194.733,44.33,194.733,29.833Z" transform="translate(-181.948 0)" fill="#0ed290"/>
        </g>
        <g id="Grupo_1177289" data-name="Grupo 1177289" transform="translate(10.661 24.819)">
          <circle id="Elipse_13702" data-name="Elipse 13702" cx="5.014" cy="5.014" r="5.014" transform="translate(34.596)" fill="#fff"/>
          <path id="Trazado_995085" data-name="Trazado 995085" d="M366.617,104.014a5.011,5.011,0,0,1,2.942-4.562,5.014,5.014,0,1,0,0,9.124A5.011,5.011,0,0,1,366.617,104.014Z" transform="translate(-327.878 -99)" fill="#dff6fd"/>
          <circle id="Elipse_13703" data-name="Elipse 13703" cx="5.014" cy="5.014" r="5.014" transform="translate(17.298)" fill="#fff"/>
          <path id="Trazado_995086" data-name="Trazado 995086" d="M297.617,104.014a5.011,5.011,0,0,1,2.942-4.562,5.014,5.014,0,1,0,0,9.124A5.011,5.011,0,0,1,297.617,104.014Z" transform="translate(-276.176 -99)" fill="#dff6fd"/>
          <circle id="Elipse_13704" data-name="Elipse 13704" cx="5.014" cy="5.014" r="5.014" fill="#fff"/>
          <path id="Trazado_995087" data-name="Trazado 995087" d="M228.617,104.014a5.011,5.011,0,0,1,2.942-4.562,5.014,5.014,0,1,0,0,9.124A5.011,5.011,0,0,1,228.617,104.014Z" transform="translate(-224.474 -99)" fill="#dff6fd"/>
        </g>
      </g>
    </g>
  </g>
</svg>
